<svg width="16" height="16" xmlns="http://www.w3.org/2000/svg" fill="context-fill" fill-opacity="context-fill-opacity"><path d="M9.743,1.009c-.174.027-.336.106-.464.228l-3.39,3.146c-.081.075-.187.117-.297.116h-2.28c-.725,0-1.312.588-1.312,1.313h0v4.378c0,.725.588,1.313,1.312,1.313h2.281c.11,0,.217.042.297.117l3.388,3.146c.56.52,1.47.123,1.47-.641V1.877c0-.573-.513-.94-1.005-.868ZM9.875,1.877v12.247l-3.389-3.147c-.243-.225-.561-.35-.892-.35h-2.281c-.242,0-.437-.196-.437-.438v-4.379c0-.242.196-.438.437-.438h2.281c.331,0,.649-.125.892-.351l3.389-3.146ZM13.917,3.185c-.242-.012-.448.175-.46.418-.005.114.034.226.11.312,2.079,2.327,2.079,5.843,0,8.17-.161.181-.145.458.035.62.179.161.455.145.616-.035,2.376-2.66,2.376-6.68,0-9.339-.077-.087-.185-.139-.301-.145ZM12.736,5.377c-.24.03-.41.249-.38.488.007.058.026.114.055.164.704,1.219.704,2.721,0,3.94-.116.213-.037.479.175.595.205.112.462.043.584-.157.859-1.49.858-3.325-.002-4.814-.087-.152-.258-.238-.432-.216h0Z"/></svg>